<svg width="1440" height="695" viewBox="0 0 1440 695" fill="none" xmlns="http://www.w3.org/2000/svg">
<g clip-path="url(#clip0_260_8457)">
<path d="M0 0H1440V655C1440 677.091 1422.09 695 1400 695H40C17.9086 695 0 677.091 0 655V0Z" fill="url(#paint0_linear_260_8457)"/>
<rect x="865.67" y="180" width="635" height="635" rx="99" transform="rotate(25.23 865.67 180)" fill="#BEE9E8"/>
<rect opacity="0.4" x="438.334" y="564" width="635" height="635" rx="99" transform="rotate(56.47 438.334 564)" fill="#BEE9E8"/>
<rect x="-64.3296" y="-697" width="635" height="635" rx="99" transform="rotate(25.23 -64.3296 -697)" fill="#BEE9E8"/>
<rect x="762.192" y="148" width="14.6264" height="14.6264" rx="4" transform="rotate(20.792 762.192 148)" fill="#F7DBA7"/>
<rect x="728" y="210.678" width="27.4976" height="27.4976" rx="9" transform="rotate(-22.8503 728 210.678)" fill="#F7DBA7"/>
</g>
<defs>
<linearGradient id="paint0_linear_260_8457" x1="0" y1="0" x2="1506.5" y2="713" gradientUnits="userSpaceOnUse">
<stop offset="0.0616933" stop-color="#FDFDFD"/>
<stop offset="0.751415" stop-color="#AAE5FB"/>
<stop offset="1" stop-color="#FDFDFD"/>
</linearGradient>
<clipPath id="clip0_260_8457">
<path d="M0 0H1440V655C1440 677.091 1422.09 695 1400 695H40C17.9086 695 0 677.091 0 655V0Z" fill="white"/>
</clipPath>
</defs>
</svg>
