<svg width="511" height="389" viewBox="0 0 511 389" fill="none" xmlns="http://www.w3.org/2000/svg">
<path fill-rule="evenodd" clip-rule="evenodd" d="M196.88 13.4029C196.171 28.6048 187.656 58.8543 180.671 70.9947C178.034 75.5761 163.617 95.34 148.63 114.91C119.243 153.293 108.222 171.043 96.7266 198.502C89.5269 215.703 89.3611 216.801 89.1114 248.871C88.97 267.168 87.9071 282.495 86.7093 283.553C85.527 284.599 75.7108 287.723 64.8935 290.495C41.7187 296.434 30.7555 301.047 17.8919 310.269C-3.1416 325.349 -5.92382 345.309 11.1054 358.951C25.5447 370.519 40.2226 372.383 84.7934 368.31C106.821 366.297 129.315 365.457 144.46 366.082C171.787 367.212 174.293 366.813 174.293 361.347C174.293 343.599 152.683 339.871 95.8427 347.813C48.9471 354.366 28.9103 352.488 24.0044 341.083C18.63 328.585 30.634 316.095 56.4761 307.297C82.8929 298.304 88.1987 297.859 99.5133 303.7C112.852 310.585 127.229 311.734 164.408 308.883C193.446 306.656 196.887 306.725 200.491 309.608C205.461 313.584 209.405 313.68 211.061 309.864C211.927 307.869 215.458 306.934 222.11 306.934C228.799 306.934 232.293 306 233.17 303.978C234.989 299.791 229.968 295.211 223.56 295.211C220.57 295.211 218.453 294.551 218.859 293.746C219.264 292.941 222.963 286.189 227.08 278.741C231.197 271.296 237.798 253.712 241.749 239.667C247.017 220.948 249.291 215.435 250.27 219.016C255.402 237.799 256.367 247.347 256.252 278.116C256.142 307.758 256.606 312.795 259.452 312.795C267.602 312.795 271.319 291.949 273.73 232.692C274.8 206.366 276.901 173.452 278.397 159.551L281.118 134.276L286.804 140.991C297.172 153.24 319.901 173.244 332.311 181.044L344.55 188.734L343.27 198.502C342.565 203.875 340.439 215.294 338.548 223.879C336.457 233.36 335.487 245.313 336.077 254.326C336.91 267.05 338.499 271.772 347.213 287.457L357.374 305.748L351.88 311.521C346.837 316.817 346.676 317.552 349.931 320.416C352.98 323.103 360.794 323.54 405.63 323.54H457.781L464.099 329.036C476.324 339.672 469.725 352.961 447.432 362.605C429.349 370.427 412.479 370.822 363.236 364.58C315.483 358.525 296.485 358.76 278.435 365.625C270.137 368.78 266.667 371.295 265.646 374.892C262.332 386.573 274.912 390.76 301.36 386.77C313.196 384.987 338.393 384.096 377.6 384.074C444.741 384.039 452.742 382.746 469.31 369.244C484.231 357.084 488.779 345.895 485.194 330.152L483.586 323.089L492.787 321.997C497.848 321.397 502.842 319.74 503.881 318.316C515.178 302.848 512.692 249.475 498.823 209.761C493.866 195.568 482.819 175.224 459.825 137.937C438.84 103.909 434.104 94.916 427.413 76.3948C421.305 59.4873 407.157 33.4129 404.09 33.4129C403.162 33.4129 401.759 36.4412 400.972 40.1415C399.631 46.4638 398.915 46.9366 389.125 47.9818C383.395 48.5933 372.343 50.0059 364.564 51.1234L350.426 53.1533L342.758 46.7021L335.087 40.2509L336.433 80.3022C337.173 102.33 339.16 130.024 340.846 141.844C342.534 153.664 343.675 163.581 343.383 163.88C342.068 165.228 315.377 145.699 301.36 133.137L285.891 119.271L285.842 75.8536C285.803 41.1477 285.02 29.7438 281.946 19.0218C276.767 0.951897 275.865 0.182135 271.573 10.1617C269.215 15.64 266.732 18.5139 264.727 18.0802C253.176 15.5853 231.495 13.8269 224.287 14.7999C216.344 15.8705 215.164 15.3801 208.093 8.07711C203.898 3.74376 199.799 0.20753 198.981 0.215345C198.164 0.22316 197.22 6.15856 196.88 13.4029ZM211.781 16.3179C211.825 17.1248 215.838 17.7832 220.7 17.7832C228.633 17.7832 229.539 18.2794 229.539 22.6225C229.539 25.686 231.661 28.6908 235.318 30.8086C240.498 33.8095 241.703 33.8584 246.92 31.2775C250.122 29.6931 253.072 26.3659 253.477 23.8807C254.131 19.86 255.05 19.5005 261.823 20.6259C268.831 21.7864 269.671 21.3937 272.389 15.681C274.013 12.2678 275.991 10.404 276.784 11.5391C281.356 18.0782 285.166 55.5232 283.96 82.0469C283.255 97.5144 282.245 110.554 281.712 111.022C281.18 111.493 278.656 110.89 276.104 109.682C269.034 106.337 268.157 111.376 273.922 122.221L278.8 131.394L275.182 171.785C273.191 194.001 270.605 230.201 269.434 252.229C267.401 290.47 264.944 305.57 260.051 309.864C258.557 311.175 258.319 303.472 259.324 286.42C260.928 259.263 258.498 234.726 252.434 216.865C248.14 204.217 248.189 204.141 238.761 239.251C232.936 260.939 228.93 270.276 214.532 295.7C214.075 296.505 216.519 297.179 219.964 297.194C223.407 297.212 227.595 297.991 229.27 298.931C234.538 301.879 229.661 304.98 219.754 304.98H210.23L207.73 287.752C204.371 264.598 204.701 238.376 208.546 222.924C212.552 206.817 212.444 204.242 208.175 214.132C206.236 218.624 204.303 231.504 203.627 244.415L202.451 266.882L195.817 267.103L189.181 267.324L190.219 237.797C191.26 208.179 189.461 205.688 186.633 232.833C184.823 250.207 188.31 279.826 193.886 294.424L197.916 304.98H188.314C181.364 304.98 178.713 304.191 178.713 302.125C178.713 300.439 175.033 298.394 169.729 297.132C164.79 295.956 161.111 294.383 161.555 293.637C174.081 272.587 175.391 268.654 175.396 252.087C175.398 237.317 174.616 233.99 168.768 223.914C165.122 217.631 160.709 212.071 158.963 211.561C156.917 210.963 157.505 212.563 160.62 216.064C166.275 222.42 166.713 224.877 162.189 224.877C160.395 224.877 157.284 227.093 155.277 229.801C150.72 235.949 152.126 250.674 157.801 256.217C162.203 260.517 171.029 261.32 173.024 257.602C173.747 256.26 173.804 258.237 173.157 261.998C172.233 267.351 164.691 283.141 157.177 295.448C156.769 296.116 161.023 297.683 166.629 298.931C172.865 300.318 176.476 302.124 175.928 303.579C175.296 305.265 165.845 306.115 143.474 306.5C113.148 307.021 111.539 306.85 102.379 302.104C97.1354 299.388 89.7589 297.165 85.9867 297.165C77.6245 297.165 45.8356 307.752 34.6824 314.25C26.5148 319.009 19.6023 328.8 19.6023 335.612C19.6023 340.799 25.4099 347.485 32.8858 350.904C42.7286 355.403 73.8368 354.53 105.787 348.86C110.916 347.95 111.318 348.427 111.411 355.532C111.508 363.001 111.296 363.212 102.572 364.338C97.6548 364.973 81.6995 366.053 67.1144 366.739C36.4724 368.179 25.4275 366.28 14.3208 357.658C-13.771 335.851 9.56071 307.021 67.1741 292.351C85.5955 287.66 92.5279 283.917 92.5279 278.659C92.5279 277.489 95.5024 275.539 99.1354 274.326C107.345 271.587 111.347 263.586 107.57 257.475C106.119 255.127 104.229 248.082 103.369 241.818C102.293 233.974 100.227 228.941 96.731 225.649L91.6528 220.872L97.9023 203.826C107.285 178.234 119.899 157.65 152.828 114.18C188.175 67.521 195.362 52.5496 199.888 16.1401L201.428 3.74962L206.566 9.30209C209.39 12.3538 211.737 15.511 211.781 16.3179ZM211.308 39.3835C206.208 42.0718 206.396 46.456 211.715 48.9743C217.637 51.7759 223.504 51.5005 228.565 48.185C232.377 45.6862 232.485 45.0493 229.539 42.4528C224.989 38.4418 215.973 36.9238 211.308 39.3835ZM253.296 40.3916C246.226 43.7813 245.61 47.1495 251.232 51.647C261.594 59.9386 278.157 57.133 278.157 47.089C278.157 37.7404 265.777 34.4054 253.296 40.3916ZM413.758 52.4617C417.873 59.7139 423.833 73.1223 427.002 82.2559C430.235 91.581 440.144 110.856 449.596 126.215C487.753 188.208 496.085 204.946 502.27 232.036C512.727 277.837 509.79 318.603 496.025 318.683C493.486 318.697 489.137 319.248 486.359 319.906C481.612 321.03 481.393 321.78 482.748 332.349C484.511 346.139 481.464 355.128 472.432 362.777C468.671 365.963 466.327 367.053 467.109 365.25C467.878 363.482 467.484 361.476 466.236 360.792C463.166 359.115 454.946 363.851 454.946 367.296C454.946 369.419 455.969 369.24 459.368 366.52C463.756 363.009 463.763 363.029 460.333 369.109C457.635 373.891 454.393 375.888 445.565 378.205C439.344 379.839 430.838 381.175 426.664 381.175C420.16 381.175 419.239 380.614 420.229 377.267C421.148 374.159 420.295 373.36 416.065 373.36C412.3 373.36 410.748 374.452 410.748 377.105C410.748 379.165 411.993 381.292 413.511 381.835C417.542 383.273 392.588 383.301 371.97 381.88L354.185 380.657L354.633 374.913C354.881 371.756 355.632 368.685 356.304 368.093C356.976 367.499 368.871 368.132 382.738 369.497C396.607 370.865 414.302 371.518 422.059 370.949C440.091 369.626 459.231 362.155 466.592 353.563C475.831 342.78 475.425 336.37 464.908 327.072L457.191 320.25L421.263 320.637C360.739 321.286 351.082 320.92 351.082 317.982C351.082 316.536 353.071 313.762 355.502 311.818C357.933 309.874 359.922 307.359 359.922 306.232C359.922 305.105 355.55 296.229 350.209 286.509C337.973 264.249 335.401 246.956 341.188 225.854C346.863 205.149 347.825 167.995 343.458 137.937C341.429 123.968 339.266 97.5926 338.649 79.3253L337.529 46.1121L342.883 51.268C346.992 55.2243 349.663 56.1816 354.368 55.3864C358.887 54.6225 361.121 55.3239 362.858 58.0454C365.068 61.5094 365.316 61.4332 366.792 56.8576L368.368 51.9733L369.928 56.3691C371.855 61.8044 376.347 62.2596 374.75 56.8576C373.448 52.4578 375.408 51.7935 379.368 55.2946C381.43 57.1174 382.053 56.7931 382.17 53.8293C382.305 50.3771 382.544 50.4318 384.716 54.4154C387.686 59.8585 391.673 60.2453 389.755 54.9038C388.597 51.6743 389.357 50.9964 394.141 50.9964C398.585 50.9964 400.466 49.6366 402.24 45.1352C403.511 41.9116 404.939 39.2741 405.412 39.2741C405.887 39.2741 409.641 45.2095 413.758 52.4617ZM214.07 44.2737C214.07 45.948 213.076 46.7764 211.861 46.1121C210.645 45.4478 209.651 44.0783 209.651 43.0663C209.651 42.0542 210.645 41.2278 211.861 41.2278C213.076 41.2278 214.07 42.5993 214.07 44.2737ZM227.33 43.2108C230.275 44.9223 230.275 45.3482 227.33 47.0597C221.706 50.3243 216.28 49.3787 216.28 45.1352C216.28 40.8918 221.706 39.9462 227.33 43.2108ZM264.93 46.6005C264.959 49.5018 265.28 49.578 267.05 47.1046C268.674 44.8324 269.719 44.7093 271.794 46.5439C275.69 49.9883 264.035 53.7257 258.124 50.928C251.17 47.638 253.105 44.7933 263.24 43.4082C264.15 43.2831 264.913 44.7211 264.93 46.6005ZM241.844 54.6889C241.075 55.7869 239.06 56.2167 237.365 55.6404C235.106 54.8745 234.62 55.74 235.548 58.8797C236.666 62.6581 236.196 62.9883 231.537 61.6832C226.952 60.3957 226.631 60.597 229.091 63.2169C232.766 67.1322 247.548 66.7629 249.055 62.7187C249.996 60.1906 249.636 60.1613 246.418 62.5097C241.462 66.128 238.927 63.5666 242.483 58.5319C244.041 56.3281 244.847 54.1106 244.277 53.6066C243.707 53.1025 242.613 53.589 241.844 54.6889ZM206.336 58.8113C202.119 60.4133 202.144 60.4973 206.888 60.6282C209.622 60.7025 211.861 59.8858 211.861 58.8113C211.861 57.7367 211.613 56.9201 211.308 56.9943C211.003 57.0705 208.767 57.8872 206.336 58.8113ZM204.679 64.0648C202.55 64.5572 200.811 65.7274 200.811 66.6672C200.811 67.6069 203.795 67.4565 207.441 66.3331C217.383 63.2697 215.35 61.5992 204.679 64.0648ZM268.904 64.0531C270.497 64.6177 272.404 64.5474 273.138 63.8988C273.872 63.2501 272.568 62.7891 270.239 62.8731C267.664 62.9668 267.14 63.4299 268.904 64.0531ZM208.336 70.8188C204.148 74.9881 204.153 74.9978 209.098 72.7022C211.832 71.4343 214.07 69.547 214.07 68.5115C214.07 65.7353 213.012 66.1612 208.336 70.8188ZM262.687 67.394C262.687 67.816 264.179 68.6678 266.002 69.2871C267.825 69.9045 269.317 69.5587 269.317 68.5193C269.317 67.478 267.825 66.6262 266.002 66.6262C264.179 66.6262 262.687 66.972 262.687 67.394ZM259.678 73.4642C260.378 75.076 261.342 76.3948 261.819 76.3948C262.296 76.3948 262.687 75.076 262.687 73.4642C262.687 71.8524 261.724 70.5336 260.546 70.5336C259.37 70.5336 258.979 71.8524 259.678 73.4642ZM304.43 77.86C303.952 84.5476 304.816 91.161 307.252 99.433C309.106 105.732 309.073 109.075 307.115 112.873C305.683 115.653 305.022 118.382 305.649 118.935C306.277 119.49 307.658 117.87 308.717 115.336L310.646 110.729L313.167 114.895C314.575 117.222 315.212 123.227 314.61 128.498C313.548 137.81 313.565 137.845 316.06 131.099L318.59 124.261L325.297 137.448C328.988 144.703 332.78 150.636 333.724 150.636C334.667 150.636 331.998 144.286 327.792 136.526C320 122.155 318.524 114.846 322.354 109.608C323.781 107.654 324.506 107.492 324.531 109.12C324.548 110.464 325.593 111.562 326.851 111.562C328.378 111.562 328.325 110.218 326.694 107.523C324.796 104.388 325.026 102.438 327.722 98.8C332.497 92.3566 332.013 89.9926 327.079 95.6643L323.063 100.281L316.851 87.361C310.942 75.0643 304.958 70.4887 304.43 77.86ZM315.589 98.1084C312.516 103.184 313.205 105.247 316.639 101.248C321.103 96.0433 322.977 101.988 319.304 109.71L316.429 115.754L311.658 103.264C309.033 96.393 306.962 87.318 307.059 83.096L307.234 75.4179L312.449 85.0478C316.191 91.9561 317.079 95.6486 315.589 98.1084ZM390.86 105.585C390.86 108.871 391.854 111.562 393.069 111.562C394.285 111.562 395.279 109.417 395.279 106.793C395.279 104.169 394.285 101.48 393.069 100.816C391.781 100.111 390.86 102.098 390.86 105.585ZM399.699 106.677C399.699 109.364 400.694 111.562 401.909 111.562C403.124 111.562 404.119 109.364 404.119 106.677C404.119 103.991 403.124 101.793 401.909 101.793C400.694 101.793 399.699 103.991 399.699 106.677ZM381.987 108.027C381.961 111.571 381.512 111.923 379.896 109.665C377.329 106.076 374.816 107.965 376.621 112.126C378.694 116.899 386.44 115.448 386.44 110.284C386.44 107.891 385.445 105.388 384.23 104.724C383.004 104.054 382.005 105.523 381.987 108.027ZM408.539 107.654C408.539 109.803 409.533 111.562 410.748 111.562C411.964 111.562 412.958 109.803 412.958 107.654C412.958 105.505 411.964 103.747 410.748 103.747C409.533 103.747 408.539 105.505 408.539 107.654ZM418.246 108.791C418.985 110.491 419.588 112.865 419.588 114.066C419.588 115.569 420.299 115.622 421.871 114.232C424.469 111.935 422.456 105.701 419.115 105.701C417.9 105.701 417.508 107.092 418.246 108.791ZM225.469 111.562C225.469 114.248 225.971 115.348 226.583 114.004C227.197 112.662 227.197 110.464 226.583 109.12C225.971 107.777 225.469 108.875 225.469 111.562ZM292.134 127.854C301.336 136.815 316.871 149.722 326.659 156.538C344.077 168.667 344.452 169.11 344.452 177.5V186.069L337.27 181.64C324.632 173.844 297.873 150.042 287.862 137.691C277.575 125.001 270.155 111.562 273.436 111.562C274.517 111.562 282.932 118.894 292.134 127.854ZM366.551 115.239C366.551 117.388 367.546 119.689 368.761 120.353C369.976 121.018 370.971 119.802 370.971 117.653C370.971 115.504 369.976 113.203 368.761 112.539C367.546 111.874 366.551 113.09 366.551 115.239ZM359.992 117.796C359.952 119.613 360.982 121.68 362.279 122.387C366.173 124.515 366.719 122.272 363.283 118.257C360.454 114.951 360.054 114.895 359.992 117.796ZM249.042 122.647C249.983 126.736 250.54 127.229 251.183 124.542C251.662 122.547 251.088 120.062 249.91 119.021C248.527 117.798 248.217 119.082 249.042 122.647ZM240.938 127.191C240.938 129.878 241.44 130.978 242.052 129.634C242.666 128.291 242.666 126.093 242.052 124.749C241.44 123.407 240.938 124.505 240.938 127.191ZM408.583 144.91C410.757 151.617 412.34 153.787 413.99 152.328C415.76 150.763 411.745 140.184 409.082 139.4C407.259 138.863 407.12 140.402 408.583 144.91ZM427.086 142.005C427.824 143.704 428.427 146.781 428.427 148.843C428.427 150.904 429.422 152.59 430.637 152.59C433.095 152.59 433.574 146.768 431.506 142.005C430.768 140.305 429.17 138.914 427.954 138.914C426.739 138.914 426.348 140.305 427.086 142.005ZM417.378 143.683C417.378 145.232 418.372 147.041 419.588 147.705C420.803 148.37 421.798 147.102 421.798 144.89C421.798 142.679 420.803 140.867 419.588 140.867C418.372 140.867 417.378 142.133 417.378 143.683ZM434.586 146.729C435.525 152.392 439.441 155.112 439.51 150.148C439.534 148.493 440.208 148.633 441.6 150.579C442.732 152.16 444.23 152.945 444.933 152.324C446.774 150.697 443.77 144.613 441.687 145.752C440.725 146.277 439.371 145.392 438.672 143.786C436.431 138.625 433.581 140.676 434.586 146.729ZM393.069 144.648C393.069 148.163 397.624 157.029 398.866 155.931C400.74 154.274 397.454 142.821 395.105 142.821C393.984 142.821 393.069 143.644 393.069 144.648ZM220.875 147.868C220.981 150.144 221.504 150.607 222.209 149.05C222.848 147.639 222.768 145.953 222.035 145.304C221.301 144.656 220.78 145.808 220.875 147.868ZM401.942 146.24C402.004 148.915 406.068 153.473 407.365 152.324C409.106 150.785 406.333 144.775 403.882 144.775C402.797 144.775 401.924 145.435 401.942 146.24ZM240.589 148.682C240.589 149.757 241.583 150.636 242.799 150.636C244.014 150.636 245.009 149.757 245.009 148.682C245.009 147.608 244.014 146.729 242.799 146.729C241.583 146.729 240.589 147.608 240.589 148.682ZM384.307 148.194C384.352 148.999 385.808 151.857 387.545 154.543C389.801 158.033 390.725 158.496 390.782 156.169C390.891 151.58 388.539 146.729 386.203 146.729C385.118 146.729 384.265 147.389 384.307 148.194ZM379.881 153.895C379.766 157.607 382.341 162.358 384.466 162.358C387.364 162.358 386.88 159.711 383.196 155.405C381.41 153.32 379.919 152.641 379.881 153.895ZM374.52 161.217C375.26 162.919 376.834 164.312 378.02 164.312C380.926 164.312 379.108 159.871 375.804 158.898C374.188 158.422 373.696 159.316 374.52 161.217ZM226.225 170.173C225.396 172.484 225.213 174.815 225.82 175.353C226.428 175.89 227.606 174.438 228.435 172.127C229.263 169.816 229.447 167.485 228.839 166.948C228.231 166.41 227.053 167.862 226.225 170.173ZM236.344 173.266C236.45 175.542 236.973 176.005 237.678 174.448C238.317 173.037 238.238 171.351 237.504 170.703C236.77 170.054 236.249 171.207 236.344 173.266ZM305.046 182.409L304.675 191.717L296.671 188.759C292.269 187.133 286.302 185.803 283.412 185.803C271.142 185.803 282.192 197.465 298.573 201.804C303.398 203.082 307.877 205.352 308.527 206.85C309.302 208.638 310.213 208.855 311.172 207.483C312.182 206.038 314.993 205.989 320.243 207.319C324.427 208.38 330.84 209.152 334.493 209.033C339.92 208.859 339.345 208.509 331.355 207.122C321.991 205.498 318.04 202.912 317.967 198.352C317.95 197.166 321.068 196.484 325.116 196.787C332.23 197.32 332.219 197.305 324.011 195.126C316.089 193.026 315.709 192.536 315.377 183.994L315.03 175.058L313.72 184.664C312.666 192.391 311.901 193.723 309.813 191.477C308.383 189.941 306.81 185.178 306.317 180.893C305.428 173.198 305.413 173.217 305.046 182.409ZM218.665 184.988C218.771 187.264 219.295 187.727 220 186.17C220.638 184.76 220.559 183.074 219.825 182.425C219.091 181.776 218.57 182.929 218.665 184.988ZM445.784 182.831C443.978 184.428 446.413 195.572 448.566 195.572C449.644 195.572 450.51 193.592 450.493 191.176C450.455 186.362 447.571 181.251 445.784 182.831ZM233.959 185.803C233.959 186.878 234.954 187.757 236.169 187.757C237.385 187.757 238.379 186.878 238.379 185.803C238.379 184.728 237.385 183.849 236.169 183.849C234.954 183.849 233.959 184.728 233.959 185.803ZM428.458 186.354C428.54 192.916 431.355 197.234 435.375 196.967C441.512 196.558 439.978 187.722 433.4 185.588C429.963 184.473 428.436 184.711 428.458 186.354ZM416.633 192.153C418.748 202.077 421.652 205.506 421.731 198.174C421.809 190.957 419.919 185.803 417.197 185.803C416.143 185.803 415.889 188.661 416.633 192.153ZM454.979 187.268C454.999 188.073 455.978 190.052 457.156 191.664C458.888 194.034 459.304 193.753 459.332 190.199C459.35 187.782 458.371 185.803 457.156 185.803C455.94 185.803 454.961 186.463 454.979 187.268ZM463.785 189.71C463.785 191.86 464.78 193.618 465.995 193.618C467.21 193.618 468.205 191.86 468.205 189.71C468.205 187.561 467.21 185.803 465.995 185.803C464.78 185.803 463.785 187.561 463.785 189.71ZM296.092 191.146C303.689 193.532 306.885 195.595 306.885 198.115C306.885 200.929 305.817 201.405 301.913 200.341C293.977 198.176 285.803 194.124 282.698 190.816C278.837 186.706 282.212 186.788 296.092 191.146ZM434.356 192.031C433.651 193.589 433.128 193.126 433.022 190.849C432.927 188.79 433.448 187.638 434.182 188.286C434.915 188.935 434.995 190.621 434.356 192.031ZM404.15 192.037C404.207 197.002 406.852 203.332 408.494 202.435C410.583 201.292 408.68 191.973 406.066 190.543C404.994 189.959 404.132 190.631 404.15 192.037ZM225.294 194.757C225.4 197.033 225.924 197.496 226.629 195.939C227.268 194.528 227.188 192.842 226.455 192.194C225.721 191.545 225.199 192.698 225.294 194.757ZM396.654 198.991C398.369 205.313 399.213 206.421 401.069 204.779C403.078 203.005 399.995 193.618 397.405 193.618C396.115 193.618 395.801 195.853 396.654 198.991ZM315.724 199.641C315.724 204.402 310.56 203.73 309.486 198.828C309.061 196.9 310.189 195.572 312.248 195.572C314.297 195.572 315.724 197.242 315.724 199.641ZM388.65 203.271C388.65 204.283 389.644 205.653 390.86 206.317C392.075 206.981 393.069 206.153 393.069 204.479C393.069 202.804 392.075 201.433 390.86 201.433C389.644 201.433 388.65 202.259 388.65 203.271ZM217.754 224.227C216.943 224.942 216.344 227.361 216.42 229.6C216.55 233.341 216.731 233.292 218.678 228.99C220.841 224.207 220.393 221.892 217.754 224.227ZM437.267 230.508C437.267 232.657 438.261 234.959 439.477 235.623C440.692 236.287 441.687 235.072 441.687 232.923C441.687 230.774 440.692 228.472 439.477 227.808C438.261 227.144 437.267 228.359 437.267 230.508ZM445.127 231.227C446.99 236.588 447.923 237.598 449.622 236.096C451.527 234.412 448.407 226.831 445.808 226.831C444.537 226.831 444.248 228.699 445.127 231.227ZM454.946 231.899C454.946 235.297 456.17 236.6 459.365 236.6C462.221 236.6 463.785 235.297 463.785 232.921C463.785 230.883 461.812 228.785 459.365 228.218C455.85 227.406 454.946 228.16 454.946 231.899ZM427.583 230.363C426.701 231.627 426.889 234.101 428.001 235.857C430.608 239.976 432.776 236.799 430.741 231.844C429.687 229.277 428.675 228.802 427.583 230.363ZM469.876 230C469.241 230.944 469.754 233.913 471.011 236.6C472.852 240.533 473.478 240.829 474.216 238.126C475.268 234.271 471.608 227.417 469.876 230ZM410.748 237.461C410.748 240.21 411.743 242.461 412.958 242.461C414.174 242.461 415.168 240.755 415.168 238.669C415.168 236.582 414.174 234.333 412.958 233.669C411.705 232.983 410.748 234.626 410.748 237.461ZM417.411 234.158C417.473 236.832 421.537 241.39 422.834 240.241C424.576 238.702 421.802 232.692 419.351 232.692C418.266 232.692 417.393 233.353 417.411 234.158ZM353.292 237.461C353.292 239.136 354.286 240.507 355.502 240.507C356.717 240.507 357.712 239.681 357.712 238.669C357.712 237.657 356.717 236.287 355.502 235.623C354.286 234.959 353.292 235.787 353.292 237.461ZM346.662 240.507C346.662 242.656 347.657 244.415 348.872 244.415C350.088 244.415 351.082 242.656 351.082 240.507C351.082 238.358 350.088 236.6 348.872 236.6C347.657 236.6 346.662 238.358 346.662 240.507ZM400.568 239.69C401.306 241.39 401.909 243.199 401.909 243.713C401.909 244.225 402.859 244.125 404.022 243.49C406.587 242.088 404.528 236.6 401.436 236.6C400.221 236.6 399.829 237.991 400.568 239.69ZM340.033 245.276C340.033 249.1 341.027 252.229 342.243 252.229C343.458 252.229 344.452 249.645 344.452 246.484C344.452 243.322 343.458 240.195 342.243 239.53C340.928 238.811 340.033 241.138 340.033 245.276ZM394.596 239.903C393.918 240.874 394.166 242.822 395.149 244.229C396.132 245.634 397.494 245.989 398.172 245.018C398.851 244.047 398.603 242.099 397.62 240.693C396.636 239.288 395.275 238.932 394.596 239.903ZM352.421 274.533C353.162 276.235 354.735 277.628 355.922 277.628C358.828 277.628 357.009 273.187 353.705 272.214C352.09 271.737 351.597 272.632 352.421 274.533ZM348.943 278.001C348.903 279.818 349.933 281.885 351.23 282.592C355.124 284.72 355.67 282.477 352.233 278.462C349.405 275.156 349.005 275.1 348.943 278.001ZM333.728 363.367C343.82 364.84 355.524 371.406 348.052 371.406C345.915 371.406 345.009 372.793 345.544 375.249C346.452 379.418 344.589 379.907 319.439 382.081C310.986 382.814 307.053 382.513 307.968 381.208C308.73 380.116 308.244 379.221 306.885 379.221C305.526 379.221 305.028 378.342 305.78 377.267C306.555 376.16 304.697 375.314 301.491 375.314C295.139 375.314 294.282 377.568 299.033 381.769C301.822 384.236 301.146 384.725 293.712 385.606C276.676 387.626 264.418 382.372 267.83 374.515C269.607 370.42 280.585 366.323 293.626 364.889C299.095 364.287 301.581 364.275 299.15 364.859C293.597 366.198 289.46 369.453 293.314 369.453C294.843 369.453 295.482 370.332 294.73 371.406C293.959 372.51 295.769 373.36 298.889 373.36C305.011 373.36 308.478 370.345 304.136 368.796C302.461 368.2 302.894 367.747 305.227 367.653C307.355 367.569 309.095 366.18 309.095 364.568C309.095 361.276 316.805 360.901 333.728 363.367Z" fill="#3C096C"/>
</svg>
