<svg width="508" height="457" viewBox="0 0 508 457" fill="none" xmlns="http://www.w3.org/2000/svg">
<path fill-rule="evenodd" clip-rule="evenodd" d="M2.38083 5.84155C-2.69437 13.3108 -0.0317719 23.2301 14.0191 49.2298C21.2787 62.6638 25.0602 74.0572 29.5529 96.0298C32.8174 112.005 36.815 128.228 38.4315 132.08C42.2372 141.136 55.4726 155.204 66.2055 161.597L74.652 166.63L66.089 175.103C53.2687 187.79 46.9095 203.667 45.6401 226.159C42.2785 285.675 71.9311 363.985 117.443 415.788C133.421 433.977 149.527 442.148 149.518 432.063C149.515 430.53 141.935 418.531 132.673 405.399C117.159 383.405 110.734 370.046 110.7 359.713C110.683 354.67 123.159 329.826 125.707 329.826C126.739 329.826 128.244 332.723 129.054 336.261C137.28 372.271 153.457 411.775 165.743 425.853C179.175 441.241 179.447 432.264 166.705 394.382C155.401 360.782 151.083 340.705 155.513 342.345C157.139 342.947 164.583 344.175 172.054 345.074L185.641 346.712L194.479 373.757C205.076 406.201 223.328 447.189 229.621 452.681C234.692 457.106 239.33 455.638 239.318 449.613C239.313 447.437 235.524 433.778 230.896 419.259C223.854 397.174 212.626 349.323 212.626 341.407C212.626 340.185 215.665 339.186 219.379 339.186C223.092 339.186 231.811 337.766 238.75 336.029C250.005 333.217 251.493 333.28 252.534 336.614C255.934 347.509 258.742 384.444 258.742 418.294C258.742 459.027 260.357 463.541 268.9 446.7C276.075 432.557 278.781 403.176 280.31 322.806L281.801 244.416L292.931 225.696C299.053 215.4 305.162 204.365 306.504 201.175L308.946 195.372L311.999 200.871C322.89 220.492 327.759 331.609 320.727 400.099C318.419 422.581 316.907 444.053 317.368 447.816C318.383 456.074 323.006 458.163 326.468 451.93C330.766 444.187 338.819 405.504 343.322 370.991C346.965 343.045 348.246 338.047 351.725 338.21C353.982 338.318 360.87 338.582 367.033 338.795L378.239 339.186L376.547 354.981C375.618 363.67 372.758 379.979 370.198 391.225C364.938 414.312 364.438 421.086 368.001 421.086C374.722 421.086 385.659 393.717 393.139 358.175C395.139 348.67 398.062 339.72 399.634 338.285C402.821 335.374 401.523 371.967 396.683 421.503C394.088 448.031 394.651 456.186 399.074 456.186C402.212 456.186 408.695 440.756 412.695 423.77C414.62 415.592 418.078 392.234 420.382 371.864C424.321 337.019 424.894 334.747 430.022 333.505C433.02 332.779 437.01 331.619 438.886 330.924C441.743 329.866 441.971 332.636 440.289 347.879C439.182 357.899 436.661 375.047 434.683 385.986C430.129 411.174 430.044 421.086 434.379 421.086C438.238 421.086 447.864 401.126 455.202 377.908C473.163 321.07 478.391 276.603 471.355 240.52C467.522 220.878 467.549 219.998 472.204 212.391C480.981 198.049 484.141 185.284 486.689 153.863C489.092 124.22 489.689 121.833 499.228 103.801C510.378 82.7199 510.793 76.3059 501.073 75.2178C491.464 74.1414 478.522 86.3141 472.17 102.402C467.702 113.715 466.821 121.339 466.306 153.156C465.736 188.446 462.612 207.205 458.156 202.093C457.131 200.918 450.153 192.585 442.646 183.576C406.44 140.12 345.691 90.3764 316.841 80.5647C302.73 75.7631 301.985 76.0813 307.118 84.7112C315.79 99.2918 315.606 101.718 304.817 114.876C299.308 121.594 292.56 131.378 289.822 136.615C287.084 141.852 284.495 146.515 284.07 146.976C283.643 147.44 279.953 145.523 275.873 142.722C267.551 137.01 266.776 132.302 272.123 119.961C274.143 115.302 275.509 111.228 275.157 110.912C272.332 108.364 249.111 123.649 231.854 139.416C207.294 161.856 202.517 163.309 164.27 159.97C151.486 158.852 128.069 157.881 112.234 157.808L83.4407 157.677L72.8438 144.161C59.5793 127.245 54.8731 112.223 54.8197 86.6253C54.7663 61.4821 49.7711 38.3324 41.0771 22.9329C28.9704 1.48447 10.7982 -6.54172 2.38083 5.84155ZM22.6331 5.77837C25.5262 7.73227 30.3684 12.7328 33.3951 16.8934C37.0674 21.9454 37.5164 23.3892 34.7422 21.2458C29.8709 17.476 29.6548 18.3582 33.2834 27.2291C35.696 33.1283 36.1596 33.3482 37.7082 29.3211C39.145 25.5888 40.1426 26.5225 43.5892 34.8295C49.111 48.1324 51.5503 65.4062 47.9095 65.4062C43.8003 65.4062 44.5746 76.3925 48.793 77.9533C50.7954 78.6927 52.4338 82.0764 52.4338 85.4741C52.4338 89.9996 51.4629 91.2866 48.793 90.2991C46.1401 89.3187 45.077 90.6782 44.8707 95.3138C44.6814 99.5866 44.213 100.275 43.446 97.4104C42.7057 94.6539 40.9411 93.6453 38.4582 94.5626C30.4801 97.5157 27.349 81.2831 35.1257 77.27C37.6184 75.983 40.3489 75.5969 41.1936 76.4089C42.0358 77.2209 42.7251 74.0244 42.7251 69.307C42.7251 60.9041 38.0577 56.7552 37.679 64.8212C37.565 67.2665 36.9946 67.7392 36.264 65.9912C35.5893 64.3836 33.9218 63.0662 32.5553 63.0662C31.1888 63.0662 30.6767 64.5919 31.4194 66.4569C32.3223 68.7243 31.6038 69.417 29.2519 68.5465C27.3175 67.8305 25.735 66.9623 25.735 66.616C25.735 66.272 22.985 59.9915 19.621 52.6626C16.2593 45.3337 14.621 39.9985 15.9802 40.8105C18.9947 42.6053 19.1792 37.3754 16.2593 32.9317C15.0943 31.158 12.9827 30.3975 11.5652 31.2422C7.99 33.3716 3.81043 24.9944 3.41722 14.9114C2.9415 2.71999 11.8395 -1.51072 22.6331 5.77837ZM14.0822 22.7012C19.8127 34.0432 21.9729 37.3262 23.6986 37.3262C26.5481 37.3262 26.2714 35.7538 22.0311 27.8492C19.9947 24.0538 17.1744 20.9462 15.7618 20.9462C14.3492 20.9462 13.5943 21.7348 14.0822 22.7012ZM23.3078 22.8393C23.3078 23.8806 24.9122 26.7752 26.8709 29.2743C30.5092 33.9122 31.7689 31.3148 29.116 24.6481C27.5942 20.8246 23.3078 19.4884 23.3078 22.8393ZM275.264 34.9582L269.386 42.2005L264.9 37.4222C262.434 34.7967 258.026 32.6462 255.102 32.6462C249.058 32.6462 241.752 39.3714 241.752 44.9359C241.752 50.2734 252.636 62.0109 265.49 70.5378L276.534 77.8621L282.327 71.0503C294.063 57.242 300.349 44.7698 299.56 36.8536C298.861 29.8312 297.995 29.0731 289.965 28.4249C282.543 27.8282 280.208 28.8648 275.264 34.9582ZM294.871 32.431C297.174 33.8373 297.698 36.5377 296.538 40.9954C294.657 48.2236 278.733 72.4262 275.861 72.4262C273.218 72.4262 255.874 59.9119 250.66 54.2421C245.352 48.4717 246.112 39.9681 252.255 36.3949C255.956 34.2421 257.82 35.1103 263.563 41.6646L270.439 49.5106L273.398 44.0046C280.211 31.3241 287.036 27.6457 294.871 32.431ZM327.917 88.2774C349.302 98.7255 374.346 118.152 402.321 145.991C455.139 198.55 462.743 209.56 468.602 241.954C473.818 270.797 473.272 290.846 466.367 323.681C459.733 355.227 442.991 408.001 437.321 415.236C433.77 419.766 433.651 419.703 433.576 413.231C433.44 401.58 441.309 363.904 444.658 360.16C446.428 358.182 449.561 352.674 451.622 347.921C455.037 340.04 455.01 338.475 451.296 330.215L447.226 321.154L438.809 326.66C434.18 329.688 428.549 332.166 426.297 332.166C422.806 332.166 421.586 337.579 418.025 368.818C413.319 410.116 408.756 433.355 402.828 446.236C397.149 458.575 395.972 451.586 399.229 424.898C403.217 392.239 405.302 327.912 402.234 332.166C400.29 334.859 394.452 335.676 377.159 335.676C364.758 335.676 351.64 334.874 348.006 333.893C342.625 332.44 341.662 332.777 342.824 335.699C343.611 337.674 343.482 347.224 342.54 356.923C340.851 374.286 340.727 374.546 334.37 373.837L327.917 373.116L326.363 308.766C324.708 240.202 320.837 208.399 312.771 197.064C310.237 193.507 306.893 186.384 305.337 181.236C302.808 172.871 298.788 165.773 289.973 154.104C288.395 152.014 287.849 147.699 288.732 144.306C290.15 138.859 291.177 138.379 298.854 139.58C313.926 141.938 322.46 129.176 312.337 119.416C307.747 114.991 307.747 114.869 312.337 110.863C317.926 105.989 318.191 100.78 313.417 89.7633C309.902 81.6505 309.934 81.5382 315.237 83.1153C318.206 83.9975 323.912 86.3211 327.917 88.2774ZM44.6984 103.473C46.9508 102.673 49.4046 101.15 50.1498 100.09C50.8974 99.0297 52.5794 104.407 53.89 112.04C55.1983 119.671 55.407 125.401 54.3512 124.772C53.2978 124.145 52.3464 125.008 52.242 126.693C52.0939 129.045 51.7663 129.078 50.827 126.836C50.0964 125.09 47.378 124.454 44.077 125.252C39.4096 126.382 38.3174 125.469 37.0577 119.397C36.2373 115.442 36.3077 108.783 37.2179 104.601C38.1863 100.144 39.2276 98.6366 39.7348 100.963C40.3077 103.574 41.9994 104.43 44.6984 103.473ZM485.99 113.996C487.896 115.194 488.114 119.97 486.711 129.756C485.604 137.478 483.626 154.701 482.316 168.029C480.517 186.33 478.328 195.426 473.371 205.188C467.808 216.154 466.447 217.487 464.413 213.982C462.777 211.167 462.966 207.152 465.003 201.393C466.648 196.741 468.49 176.088 469.1 155.496C469.709 134.904 470.651 116.741 471.194 115.131C472.267 111.949 481.595 111.235 485.99 113.996ZM269.645 118.641C268.682 120.895 266.992 126.368 265.891 130.805C264.213 137.574 264.689 139.413 268.844 142.219C272.701 144.823 273.087 145.991 270.589 147.479C268.822 148.53 268.14 150.126 269.07 151.022C270 151.918 272.427 151.322 274.461 149.693C278.793 146.225 279.502 149.756 275.288 153.818C273.708 155.342 273.179 157.326 274.114 158.227C275.048 159.128 277.106 158.618 278.686 157.094C282.9 153.032 286.563 153.715 282.966 157.892C278.978 162.523 281.793 165.238 286.597 161.393C290.929 157.925 291.638 161.456 287.424 165.518C283.548 169.255 286.868 172.08 291.128 168.67C295.245 165.378 298.016 168.2 302.079 179.83C306.71 193.086 305.402 198.487 291.509 223.457L278.16 247.451L278.157 307.945C278.155 386.765 273.092 440.063 264.58 450.879C261.815 454.391 261.293 448.651 261.114 412.896C261 389.73 259.492 361.826 257.764 350.886C255.495 336.521 255.364 330.519 257.291 329.276C261.922 326.29 255.626 327.46 241.752 332.166C227.279 337.073 212.626 338.252 212.626 334.506C212.626 333.219 211.685 332.166 210.537 332.166C208.19 332.166 208.226 332.456 215.173 369.253C217.927 383.861 223.944 407.376 228.541 421.51C238.223 451.286 238.905 456.006 232.833 451.207C226.396 446.122 209.27 408.658 198.049 375.112L187.755 344.348L169.971 341.8C160.19 340.396 146.127 336.383 138.719 332.88C125.734 326.74 125.244 326.171 125.139 317.054C125.079 311.853 123.435 304.437 121.484 300.576C117.615 292.915 117.603 292.173 121.7 313.97C123.013 320.958 121.843 325.764 115.797 338.217C111.652 346.761 108.258 356.659 108.258 360.216C108.258 371.455 114.773 385.12 131.176 408.279C139.93 420.641 147.093 431.766 147.093 433.001C147.093 437.237 133.588 428.511 122.627 417.195C98.5692 392.358 78.0816 357.672 64.7783 319.249C42.4266 254.705 42.3271 205.521 64.4943 179.692C76.9457 165.184 109.178 153.318 114.326 161.346C116.365 164.524 124.627 164.316 125.753 161.058C126.372 159.268 130.117 159.006 137.484 160.232C143.435 161.225 146.943 162.495 145.273 163.057C139.926 164.854 142.028 168.366 148.45 168.366C152.161 168.366 154.027 167.379 153.091 165.914C152.037 164.274 157.001 163.693 168.115 164.159C179.806 164.65 184.534 165.722 184.107 167.781C183.731 169.595 186.236 170.706 190.707 170.706C196.114 170.706 197.563 169.831 196.515 167.196C195.622 164.952 196.559 163.686 199.114 163.686C206.957 163.686 222.058 154.268 230.903 143.864C238.335 135.119 265.912 114.546 270.201 114.546C270.859 114.546 270.609 116.388 269.645 118.641ZM340.844 120.871C336.909 125.214 331.557 134.293 331.557 136.622C331.557 137.349 334.686 137.946 338.511 137.946C347.827 137.946 358.737 129.513 357.78 123.052C356.81 116.474 346.077 115.091 340.844 120.871ZM53.0405 132.522C55.3755 132.503 57.2881 131.364 57.2881 129.993C57.2881 128.621 60.1691 131.694 63.6885 136.818C67.2103 141.943 73.3971 149.525 77.4384 153.666C83.8946 160.281 84.2781 161.386 80.584 162.753C71.2976 166.188 47.4969 147.39 46.1353 135.543C45.6207 131.074 46.009 128.572 46.9969 129.988C47.9848 131.401 50.7056 132.543 53.0405 132.522ZM358.436 136.568C354.586 141.04 358.766 143.202 365.921 140.438C371.001 138.477 371.088 138.222 366.751 138.059C362.715 137.906 362.511 137.492 365.538 135.606C368.705 133.634 368.666 133.334 365.227 133.301C363.055 133.283 359.999 134.752 358.436 136.568ZM361.336 146.588C363.698 147.182 366.974 147.142 368.618 146.501C370.261 145.86 368.329 145.376 364.324 145.423C360.319 145.469 358.975 145.993 361.336 146.588ZM332.04 151.008C329.431 153.797 329.535 154.623 332.647 155.775C334.717 156.54 336.412 158.695 336.412 160.565C336.412 162.434 335.319 163.312 333.984 162.516C332.65 161.721 331.557 162.186 331.557 163.548C331.557 164.91 333.196 166.026 335.198 166.026C337.2 166.026 338.839 164.447 338.839 162.516C338.839 160.586 340.344 159.006 342.183 159.006C344.021 159.006 346.885 157.427 348.547 155.496C350.453 153.283 350.615 151.986 348.987 151.986C347.569 151.986 345.64 153.182 344.703 154.644C343.555 156.437 341.727 155.728 339.098 152.468C335.732 148.296 334.766 148.095 332.04 151.008ZM310.407 163.101C304.504 168.883 306.213 170.18 313.223 165.238C315.664 163.515 317.239 161.147 316.723 159.973C316.203 158.798 313.363 160.207 310.407 163.101ZM108.258 168.366C108.258 169.653 110.508 170.706 113.256 170.706C116.004 170.706 117.579 169.653 116.754 168.366C115.928 167.079 113.681 166.026 111.756 166.026C109.831 166.026 108.258 167.079 108.258 168.366ZM244.252 168.574C244.213 170.622 246.961 173.517 250.361 175.009C257.903 178.323 258.742 178.36 258.742 175.386C258.742 174.099 256.611 173.046 254.01 173.046C251.405 173.046 248.162 171.205 246.801 168.951C244.697 165.465 244.315 165.411 244.252 168.574ZM139.812 173.046C139.812 174.333 143.154 175.386 147.236 175.386C151.569 175.386 154.037 174.41 153.161 173.046C152.336 171.759 148.996 170.706 145.736 170.706C142.477 170.706 139.812 171.759 139.812 173.046ZM315.638 174.408C311.851 177.38 311.732 177.867 315.021 176.877C317.57 176.112 319.528 177.146 320.201 179.61C320.827 181.896 321.405 180.85 321.567 177.141C321.897 169.616 321.798 169.569 315.638 174.408ZM104.618 175.386C105.443 176.673 108.302 177.726 110.972 177.726C113.642 177.726 115.152 176.673 114.326 175.386C113.501 174.099 110.642 173.046 107.972 173.046C105.302 173.046 103.792 174.099 104.618 175.386ZM178.646 175.812C178.646 178.805 190.937 180.852 193.583 178.302C195.229 176.715 193.178 175.623 187.338 174.965C182.559 174.427 178.646 174.808 178.646 175.812ZM324.659 180.066C324.659 183.284 325.21 184.601 325.883 182.991C326.557 181.384 326.557 178.751 325.883 177.141C325.21 175.534 324.659 176.849 324.659 180.066ZM99.7634 184.746C100.589 186.033 103.994 187.086 107.331 187.086C110.758 187.086 112.746 186.068 111.899 184.746C111.074 183.459 107.669 182.406 104.331 182.406C100.904 182.406 98.9163 183.424 99.7634 184.746ZM134.957 184.746C134.957 186.033 138.234 187.086 142.239 187.086C146.244 187.086 149.52 186.033 149.52 184.746C149.52 183.459 146.244 182.406 142.239 182.406C138.234 182.406 134.957 183.459 134.957 184.746ZM176.219 184.702C176.219 186.012 179.678 187.086 183.906 187.086C192.743 187.086 192.423 186.064 182.894 183.862C178.93 182.944 176.219 183.286 176.219 184.702ZM96.1227 191.766C96.1227 193.053 100.011 194.106 104.761 194.106C109.902 194.106 112.792 193.158 111.899 191.766C111.074 190.479 107.188 189.426 103.261 189.426C99.3338 189.426 96.1227 190.479 96.1227 191.766ZM173.792 191.221C173.792 194.406 186.576 196.615 189.447 193.926C190.886 192.578 190.432 191.754 188.233 191.733C186.299 191.717 182.255 191.067 179.253 190.292C176.251 189.515 173.792 189.934 173.792 191.221ZM257.194 192.936C258.871 197.15 255.99 197.537 251.946 193.638C246.592 188.476 248.956 194.537 254.495 200.171C260.014 205.785 266.024 207.606 266.024 203.66C266.024 202.481 264.66 200.902 262.99 200.15C260.582 199.067 260.577 198.505 262.968 197.429C265.293 196.381 265.194 195.311 262.536 192.749C258.041 188.415 255.429 188.507 257.194 192.936ZM133.744 194.106C134.569 195.393 138.455 196.446 142.382 196.446C146.309 196.446 149.52 195.393 149.52 194.106C149.52 192.819 145.632 191.766 140.882 191.766C135.741 191.766 132.85 192.714 133.744 194.106ZM278.16 193.69C278.16 195.147 280.946 198.098 284.351 200.251C289.014 203.195 291.232 203.499 293.332 201.475C295.431 199.451 294.999 198.786 291.58 198.786C289.082 198.786 285.041 197.043 282.599 194.913C280.043 192.683 278.16 192.164 278.16 193.69ZM93.6955 198.491C93.6955 202.219 105.698 204.531 108.921 201.423C110.95 199.467 110.329 198.786 106.516 198.786C103.688 198.786 99.6469 198.147 97.5353 197.366C95.4236 196.584 93.6955 197.092 93.6955 198.491ZM175.005 201.126C175.831 202.413 179.17 203.466 182.43 203.466C185.69 203.466 188.355 202.413 188.355 201.126C188.355 199.839 185.013 198.786 180.93 198.786C176.598 198.786 174.129 199.762 175.005 201.126ZM133.656 203.602C133.003 204.62 134.397 205.935 136.748 206.527C140.79 207.545 140.79 207.617 136.778 207.875C129.426 208.345 132.173 212.826 139.812 212.826C143.816 212.826 147.093 211.773 147.093 210.486C147.093 209.199 145.729 208.13 144.059 208.111C141.802 208.083 141.858 207.566 144.282 206.085C146.656 204.634 145.819 203.777 141.19 202.923C137.698 202.28 134.307 202.586 133.656 203.602ZM93.6955 207.622C93.6955 210.921 104.074 213.116 106.882 210.409C108.394 208.951 107.831 208.146 105.302 208.146C103.142 208.146 99.6469 207.507 97.5353 206.726C95.4236 205.944 93.6955 206.349 93.6955 207.622ZM176.219 210.486C176.219 211.773 179.496 212.826 183.5 212.826C187.505 212.826 190.782 211.773 190.782 210.486C190.782 209.199 187.505 208.146 183.5 208.146C179.496 208.146 176.219 209.199 176.219 210.486ZM365.538 212.688C365.538 213.9 366.618 215.534 367.938 216.32C369.312 217.139 369.72 216.2 368.892 214.118C367.278 210.065 365.538 209.323 365.538 212.688ZM132.53 219.802C132.53 221.112 135.989 222.186 140.217 222.186C149.054 222.186 148.734 221.164 139.205 218.962C135.241 218.044 132.53 218.386 132.53 219.802ZM177.433 219.846C178.258 221.133 181.051 222.186 183.644 222.186C186.236 222.186 188.355 221.133 188.355 219.846C188.355 218.559 185.559 217.506 182.144 217.506C178.622 217.506 176.581 218.519 177.433 219.846ZM355.829 222.324C355.829 224.973 356.921 226.492 358.256 225.696C359.591 224.901 360.683 222.734 360.683 220.878C360.683 219.022 359.591 217.506 358.256 217.506C356.921 217.506 355.829 219.675 355.829 222.324ZM134.957 229.454C134.957 232.419 144.991 234.509 147.52 232.07C149.057 230.589 147.27 229.419 142.421 228.733C138.316 228.153 134.957 228.476 134.957 229.454ZM377.673 230.376C377.673 232.307 378.732 233.886 380.025 233.886C381.317 233.886 381.746 232.307 380.979 230.376C380.21 228.446 379.152 226.866 378.627 226.866C378.103 226.866 377.673 228.446 377.673 230.376ZM365.921 236.226C365.921 239.444 366.472 240.761 367.144 239.151C367.819 237.544 367.819 234.911 367.144 233.301C366.472 231.694 365.921 233.009 365.921 236.226ZM370.775 238.566C370.775 241.784 371.326 243.101 371.999 241.491C372.673 239.884 372.673 237.251 371.999 235.641C371.326 234.034 370.775 235.349 370.775 238.566ZM139.326 239.034C141.591 241.217 142.887 241.217 145.151 239.034C147.416 236.851 146.77 236.226 142.239 236.226C137.707 236.226 137.062 236.851 139.326 239.034ZM356.021 244.61C356.137 247.336 356.712 247.891 357.487 246.026C358.188 244.337 358.101 242.317 357.295 241.54C356.489 240.763 355.916 242.144 356.021 244.61ZM353.594 260.99C353.71 263.716 354.285 264.271 355.06 262.406C355.761 260.717 355.674 258.697 354.868 257.92C354.062 257.143 353.489 258.524 353.594 260.99ZM372.819 271.967C372.819 275.325 373.955 278.746 375.343 279.575C376.999 280.56 377.3 278.795 376.215 274.448C373.982 265.481 372.819 264.634 372.819 271.967ZM361.157 274.836C361.205 278.697 361.749 279.993 362.365 277.717C362.982 275.44 362.941 272.281 362.275 270.697C361.61 269.112 361.108 270.975 361.157 274.836ZM392.236 280.41C392.236 281.697 393.329 283.401 394.664 284.196C395.998 284.992 397.091 284.589 397.091 283.302C397.091 282.015 395.998 280.312 394.664 279.516C393.329 278.721 392.236 279.123 392.236 280.41ZM381.834 292.424C383.712 299.345 386.877 300.253 385.535 293.486C384.904 290.306 383.525 287.706 382.472 287.706C381.418 287.706 381.13 289.829 381.834 292.424ZM348.547 294.726C348.547 297.3 349.538 299.406 350.746 299.406C351.958 299.406 352.375 297.3 351.678 294.726C350.979 292.152 349.989 290.046 349.477 290.046C348.967 290.046 348.547 292.152 348.547 294.726ZM85.8533 306.323C84.1762 312.082 85.1786 315.416 87.8242 312.868C88.5985 312.119 88.8509 309.049 88.38 306.042L87.5281 300.576L85.8533 306.323ZM93.0887 303.082C92.0863 304.063 91.2683 308.059 91.2683 311.965C91.2683 317.04 92.0135 318.344 93.8848 316.54C95.3241 315.152 96.1445 311.155 95.7052 307.657C95.2683 304.159 94.0911 302.099 93.0887 303.082ZM98.6275 311.829C98.5814 315.629 99.5741 317.792 100.977 316.956C102.312 316.161 103.404 316.626 103.404 317.988C103.404 319.35 104.496 320.466 105.831 320.466C107.166 320.466 108.132 317.043 107.977 312.861C107.819 308.584 107.195 307.121 106.552 309.52C105.445 313.643 105.3 313.643 102.057 309.52C98.9479 305.567 98.6979 305.736 98.6275 311.829ZM113.283 308.181C113.377 309.145 114.392 312.042 115.54 314.616C117.389 318.763 117.644 318.564 117.797 312.861C117.889 309.323 116.875 306.426 115.54 306.426C114.205 306.426 113.19 307.217 113.283 308.181ZM364.336 308.747C363.518 310.025 363.965 312.92 365.331 315.182C367.465 318.711 367.829 318.381 367.892 312.861C367.967 306.131 366.846 304.833 364.336 308.747ZM372.819 308.49C372.819 309.777 373.911 311.481 375.246 312.276C376.581 313.072 377.673 312.669 377.673 311.382C377.673 310.095 376.581 308.392 375.246 307.596C373.911 306.801 372.819 307.203 372.819 308.49ZM394.664 325.146C394.664 327.72 395.756 329.826 397.091 329.826C398.426 329.826 399.518 327.72 399.518 325.146C399.518 322.572 398.426 320.466 397.091 320.466C395.756 320.466 394.664 322.572 394.664 325.146ZM355.829 325.008C355.829 326.22 356.909 327.853 358.229 328.64C359.603 329.459 360.011 328.52 359.183 326.438C357.569 322.385 355.829 321.643 355.829 325.008ZM375.246 324.87C375.246 326.157 376.338 327.861 377.673 328.656C379.008 329.452 380.101 329.049 380.101 327.762C380.101 326.475 379.008 324.772 377.673 323.976C376.338 323.181 375.246 323.583 375.246 324.87ZM145.273 338.554C147.61 339.202 149.54 340.398 149.561 341.215C149.751 347.872 158.384 380.028 165.547 400.749C178.362 437.831 172.462 438.058 154.243 401.184C145.591 383.669 132.53 345.366 132.53 337.504C132.53 335.089 133.846 334.527 136.778 335.69C139.115 336.619 142.935 337.906 145.273 338.554ZM91.2683 344.004C91.2683 346.653 92.3606 348.172 93.6955 347.376C95.0304 346.581 96.1227 344.414 96.1227 342.558C96.1227 340.702 95.0304 339.186 93.6955 339.186C92.3606 339.186 91.2683 341.355 91.2683 344.004ZM105.147 345.457C103.47 353.877 104.661 355.028 108.288 348.495C110.113 345.207 110.297 342.556 108.8 341.112C107.302 339.668 105.989 341.229 105.147 345.457ZM390.571 357.103C386.212 379.359 376.588 409.112 371.756 415.278C366.931 421.43 367.067 417.986 372.598 393.565C375.147 382.319 378.001 366.272 378.943 357.906C380.989 339.717 381.258 339.186 388.448 339.186H394.081L390.571 357.103ZM97.5959 345.228C95.4819 350.54 95.7804 353.706 98.2561 352.232C101.137 350.514 103.448 341.526 101.009 341.526C99.943 341.526 98.4066 343.192 97.5959 345.228Z" fill="#3C096C"/>
</svg>
